<?xml version="1.0" encoding="UTF-8"?>
<svg id="logosandtypes_com" data-name="logosandtypes com" xmlns="http://www.w3.org/2000/svg" viewBox="0 0 150 150">
  <defs>
    <style>
      .cls-1 {
        fill: #161f6d;
      }

      .cls-1, .cls-2 {
        fill-rule: evenodd;
      }

      .cls-2 {
        fill: #03a7d9;
      }

      .cls-3 {
        fill: none;
      }
    </style>
  </defs>
  <path id="Layer_3" data-name="Layer 3" class="cls-3" d="M0,0H150V150H0V0Z"/>
  <path class="cls-2" d="M134.94,34.69c-15.99,9.28-21.71,24.25-23.56,44.22-2.4,25.81-14.61,53.56-45.56,53.56-10.17,0-19.74-5.4-27.07-12.27,6.55,4.71,14.27,6.34,22.58,6.34,30.95,0,40.53-25.55,42.93-51.36,1.85-19.96,8.13-35.03,24.12-44.32-.94-1.23,4.54,1.22,6.55,3.83Z"/>
  <path class="cls-1" d="M141.95,28.63c-12.37-16.22-39.55-22.7-57.71-11.52-20.92-11.6-44.65-4.55-58.48,12.96-9.79,12.29-14.95,29.3-14.95,49.2-.66,31.81,22.22,61.86,54.39,61.57,31.44,0,51.62-22.25,55.34-61.04,1.85-19.23,6.98-29.2,18.32-35.56l10.73-6-7.64-9.61Zm-32.45,50.03c-2.4,25.81-12.98,52.35-43.94,52.35-23.87,0-42.96-21.74-42.97-51.88,0-38.05,19.61-58.14,40.45-58.14,6.02,0,13.15,1.6,17.47,5.39-11.5,11.48-17.16,31.47-17.16,53.65,.01,3.28,4.49,3.18,4.58,0,0-33.54,13.4-59.03,36.41-59.03,12.31,0,22.35,5.62,28.29,13.34-15.99,9.29-21.27,24.36-23.12,44.32Z"/>
</svg>